<?xml version="1.0" encoding="iso-8859-1"?>
<!-- Generator: Adobe Illustrator 19.0.0, SVG Export Plug-In . SVG Version: 6.00 Build 0)  -->
<svg version="1.1" id="Capa_1" xmlns="http://www.w3.org/2000/svg" xmlns:xlink="http://www.w3.org/1999/xlink" x="0px" y="0px"
	 viewBox="0 0 512 512" style="enable-background:new 0 0 512 512;" xml:space="preserve">
<circle style="fill:#71C2F5;" cx="262.047" cy="266.079" r="245.921"/>
<path style="fill:#56ACE1;" d="M298.331,491.843c-135.819,0-245.921-110.103-245.921-245.921
	c0-85.11,43.239-160.116,108.944-204.264C75.744,80.128,16.126,166.139,16.126,266.079C16.126,401.897,126.228,512,262.047,512
	c50.709,0,97.829-15.354,136.977-41.657C368.29,484.153,334.209,491.843,298.331,491.843z"/>
<g>
	<path style="fill:#15B259;" d="M198.635,470.779l-35.656,20.432C193.289,504.568,226.798,512,262.047,512
		c50.699,0,97.807-15.349,136.948-41.644c-30.726,13.803-64.797,21.487-100.664,21.487
		C262.838,491.843,229.109,484.311,198.635,470.779z"/>
	<path style="fill:#15B259;" d="M161.285,41.703c-34.107,15.345-64.091,38.228-87.813,66.541l12.913,12.913
		C105.117,89.402,130.77,62.221,161.285,41.703z"/>
</g>
<path style="fill:#3AC274;" d="M474.823,389.443l-130.802-31.143c0,0-20.493-61.48-20.493-71.727
	c0-10.247,51.233-71.727,51.233-71.727l124.681-13.125C471.152,97.12,375.595,20.157,262.047,20.157
	c-35.909,0-70.011,7.71-100.762,21.545c-30.514,20.518-56.168,47.7-74.9,79.453l32.209,32.209l81.973,10.247l61.48,51.587
	l10.247,61.127l10.247,61.48L245.087,444.16l-46.453,26.619c30.475,13.532,64.205,21.064,99.697,21.064
	c35.867,0,69.938-7.684,100.664-21.487C429.998,449.527,456.003,421.832,474.823,389.443z"/>
<path style="fill:#15B259;" d="M52.409,245.921c0-5.45,0.197-10.852,0.545-16.214l-34.549,2.88
	c-1.492,10.953-2.28,22.13-2.28,33.492c0,81.65,39.802,153.992,101.05,198.719l31.224-23.952
	C90.029,395.883,52.409,325.3,52.409,245.921z"/>
<path style="fill:#3AC274;" d="M178.025,416.361l20.521-62.185c1.181-3.58-0.275-7.501-3.508-9.441l-43.52-26.112
	c-1.422-0.853-2.546-2.124-3.22-3.639l-39.952-89.892l-55.392,4.616c-0.348,5.362-0.544,10.764-0.544,16.214
	c0,79.379,37.62,149.962,95.992,194.926l26.875-20.615C176.56,419.246,177.518,417.898,178.025,416.361z"/>
<path style="fill:#FFCF1A;" d="M326.551,266.079c-40.014,0-72.567,32.553-72.567,72.567c0,51.129,64.135,115.853,66.865,118.583
	c3.107,3.106,8.296,3.106,11.403,0c2.73-2.73,66.865-67.454,66.865-118.583C399.118,298.632,366.565,266.079,326.551,266.079z"/>
<path style="fill:#FFBE35;" d="M278.173,330.615c0-27.498,15.374-51.471,37.977-63.779c-35.102,5.062-62.166,35.329-62.166,71.81
	c0,51.129,64.135,115.853,66.865,118.583c3.107,3.106,8.296,3.106,11.403,0c0.628-0.628,4.504-4.536,10.095-10.796
	C329.711,433.205,278.173,376.452,278.173,330.615z"/>
<path style="fill:#FFE88F;" d="M326.551,298.331c-22.23,0-40.315,18.085-40.315,40.315s18.085,40.315,40.315,40.315
	s40.315-18.085,40.315-40.315S348.781,298.331,326.551,298.331z"/>
<path style="fill:#FFCF1A;" d="M391.055,0c-40.014,0-72.567,32.553-72.567,72.567c0,51.129,64.135,115.853,66.865,118.583
	c3.107,3.106,8.296,3.106,11.403,0c2.73-2.73,66.865-67.454,66.865-118.583C463.622,32.553,431.069,0,391.055,0z"/>
<path style="fill:#FFBE35;" d="M342.677,64.536c0-27.498,15.374-51.471,37.977-63.779c-35.102,5.062-62.166,35.329-62.166,71.81
	c0,51.129,64.135,115.853,66.865,118.583c3.107,3.106,8.296,3.106,11.403,0c0.628-0.628,4.504-4.536,10.095-10.796
	C394.215,167.127,342.677,110.373,342.677,64.536z"/>
<path style="fill:#FFE88F;" d="M391.055,32.252c-22.23,0-40.315,18.085-40.315,40.315s18.085,40.315,40.315,40.315
	s40.315-18.085,40.315-40.315S413.285,32.252,391.055,32.252z"/>
<path style="fill:#FFCF1A;" d="M76.598,104.819c-40.014,0-72.567,32.553-72.567,72.567c0,51.129,64.135,115.853,66.865,118.583
	c3.106,3.106,8.296,3.106,11.402,0c2.731-2.73,66.866-67.454,66.866-118.583C149.165,137.372,116.612,104.819,76.598,104.819z"/>
<path style="fill:#FFBE35;" d="M28.22,169.355c0-27.498,15.374-51.471,37.977-63.779c-35.101,5.062-62.166,35.329-62.166,71.81
	c0,51.129,64.135,115.853,66.865,118.583c3.106,3.106,8.296,3.106,11.402,0c0.628-0.628,4.504-4.537,10.096-10.797
	C79.757,271.945,28.22,215.192,28.22,169.355z"/>
<path style="fill:#FFE88F;" d="M76.598,137.071c-22.23,0-40.315,18.085-40.315,40.315s18.085,40.315,40.315,40.315
	s40.315-18.085,40.315-40.315S98.828,137.071,76.598,137.071z"/>
<g>
</g>
<g>
</g>
<g>
</g>
<g>
</g>
<g>
</g>
<g>
</g>
<g>
</g>
<g>
</g>
<g>
</g>
<g>
</g>
<g>
</g>
<g>
</g>
<g>
</g>
<g>
</g>
<g>
</g>
</svg>
